<mxfile host="app.diagrams.net" agent="Mozilla/5.0 (Windows NT 10.0; Win64; x64) AppleWebKit/537.36 (KHTML, like Gecko) Chrome/134.0.0.0 Safari/537.36" version="26.1.0">
  <diagram name="Page-1" id="jA-SHVTrYB5z4xGWOonv">
    <mxGraphModel dx="1674" dy="752" grid="1" gridSize="10" guides="1" tooltips="1" connect="1" arrows="1" fold="1" page="1" pageScale="1" pageWidth="4681" pageHeight="3300" math="0" shadow="0">
      <root>
        <mxCell id="0" />
        <mxCell id="1" parent="0" />
        <mxCell id="W4nhyIR7IbMh0G7S9cnD-2" value="User" style="shape=umlActor;verticalLabelPosition=bottom;verticalAlign=top;html=1;outlineConnect=0;" parent="1" vertex="1">
          <mxGeometry x="520" y="342.5" width="30" height="60" as="geometry" />
        </mxCell>
        <mxCell id="W4nhyIR7IbMh0G7S9cnD-3" value="Admin" style="shape=umlActor;verticalLabelPosition=bottom;verticalAlign=top;html=1;outlineConnect=0;" parent="1" vertex="1">
          <mxGeometry x="1000" y="342.5" width="30" height="60" as="geometry" />
        </mxCell>
        <mxCell id="W4nhyIR7IbMh0G7S9cnD-4" value="" style="rounded=0;whiteSpace=wrap;html=1;direction=south;" parent="1" vertex="1">
          <mxGeometry x="610" y="70" width="360" height="920" as="geometry" />
        </mxCell>
        <mxCell id="W4nhyIR7IbMh0G7S9cnD-6" value="" style="endArrow=classic;html=1;rounded=0;entryX=0;entryY=0.5;entryDx=0;entryDy=0;" parent="1" target="W4nhyIR7IbMh0G7S9cnD-9" edge="1">
          <mxGeometry width="50" height="50" relative="1" as="geometry">
            <mxPoint x="560" y="380" as="sourcePoint" />
            <mxPoint x="745" y="148.75" as="targetPoint" />
          </mxGeometry>
        </mxCell>
        <mxCell id="W4nhyIR7IbMh0G7S9cnD-7" value="" style="endArrow=classic;html=1;rounded=0;entryX=1;entryY=0.5;entryDx=0;entryDy=0;" parent="1" target="W4nhyIR7IbMh0G7S9cnD-26" edge="1">
          <mxGeometry width="50" height="50" relative="1" as="geometry">
            <mxPoint x="990" y="380" as="sourcePoint" />
            <mxPoint x="835" y="148.75" as="targetPoint" />
          </mxGeometry>
        </mxCell>
        <mxCell id="W4nhyIR7IbMh0G7S9cnD-12" value="" style="edgeStyle=orthogonalEdgeStyle;rounded=0;orthogonalLoop=1;jettySize=auto;html=1;" parent="1" source="W4nhyIR7IbMh0G7S9cnD-9" target="W4nhyIR7IbMh0G7S9cnD-11" edge="1">
          <mxGeometry relative="1" as="geometry" />
        </mxCell>
        <mxCell id="W4nhyIR7IbMh0G7S9cnD-9" value="Track all Geocaching Trips" style="ellipse;whiteSpace=wrap;html=1;" parent="1" vertex="1">
          <mxGeometry x="733.75" y="120" width="112.5" height="70" as="geometry" />
        </mxCell>
        <mxCell id="W4nhyIR7IbMh0G7S9cnD-15" value="" style="edgeStyle=orthogonalEdgeStyle;rounded=0;orthogonalLoop=1;jettySize=auto;html=1;" parent="1" source="W4nhyIR7IbMh0G7S9cnD-11" target="W4nhyIR7IbMh0G7S9cnD-14" edge="1">
          <mxGeometry relative="1" as="geometry" />
        </mxCell>
        <mxCell id="W4nhyIR7IbMh0G7S9cnD-11" value="Create the Geocache Listing" style="ellipse;whiteSpace=wrap;html=1;" parent="1" vertex="1">
          <mxGeometry x="728.75" y="210" width="122.5" height="80" as="geometry" />
        </mxCell>
        <mxCell id="W4nhyIR7IbMh0G7S9cnD-17" value="" style="edgeStyle=orthogonalEdgeStyle;rounded=0;orthogonalLoop=1;jettySize=auto;html=1;" parent="1" source="W4nhyIR7IbMh0G7S9cnD-14" target="W4nhyIR7IbMh0G7S9cnD-16" edge="1">
          <mxGeometry relative="1" as="geometry" />
        </mxCell>
        <mxCell id="W4nhyIR7IbMh0G7S9cnD-14" value="Describe the Geocache Listing" style="ellipse;whiteSpace=wrap;html=1;" parent="1" vertex="1">
          <mxGeometry x="728.75" y="310" width="122.5" height="80" as="geometry" />
        </mxCell>
        <mxCell id="W4nhyIR7IbMh0G7S9cnD-19" value="" style="edgeStyle=orthogonalEdgeStyle;rounded=0;orthogonalLoop=1;jettySize=auto;html=1;" parent="1" source="W4nhyIR7IbMh0G7S9cnD-16" target="W4nhyIR7IbMh0G7S9cnD-18" edge="1">
          <mxGeometry relative="1" as="geometry" />
        </mxCell>
        <mxCell id="W4nhyIR7IbMh0G7S9cnD-16" value="Post the Geocache Listing" style="ellipse;whiteSpace=wrap;html=1;" parent="1" vertex="1">
          <mxGeometry x="728.75" y="410" width="122.5" height="80" as="geometry" />
        </mxCell>
        <mxCell id="W4nhyIR7IbMh0G7S9cnD-21" value="" style="edgeStyle=orthogonalEdgeStyle;rounded=0;orthogonalLoop=1;jettySize=auto;html=1;" parent="1" source="W4nhyIR7IbMh0G7S9cnD-18" target="W4nhyIR7IbMh0G7S9cnD-20" edge="1">
          <mxGeometry relative="1" as="geometry" />
        </mxCell>
        <mxCell id="W4nhyIR7IbMh0G7S9cnD-18" value="Track the Found Geocaches" style="ellipse;whiteSpace=wrap;html=1;" parent="1" vertex="1">
          <mxGeometry x="720" y="510" width="140" height="100" as="geometry" />
        </mxCell>
        <mxCell id="W4nhyIR7IbMh0G7S9cnD-20" value="Generate a Report" style="ellipse;whiteSpace=wrap;html=1;" parent="1" vertex="1">
          <mxGeometry x="720" y="630" width="140" height="100" as="geometry" />
        </mxCell>
        <mxCell id="W4nhyIR7IbMh0G7S9cnD-24" value="" style="edgeStyle=orthogonalEdgeStyle;rounded=0;orthogonalLoop=1;jettySize=auto;html=1;" parent="1" target="W4nhyIR7IbMh0G7S9cnD-26" edge="1">
          <mxGeometry relative="1" as="geometry">
            <mxPoint x="790" y="730" as="sourcePoint" />
          </mxGeometry>
        </mxCell>
        <mxCell id="W4nhyIR7IbMh0G7S9cnD-25" value="" style="edgeStyle=orthogonalEdgeStyle;rounded=0;orthogonalLoop=1;jettySize=auto;html=1;" parent="1" source="W4nhyIR7IbMh0G7S9cnD-26" target="W4nhyIR7IbMh0G7S9cnD-27" edge="1">
          <mxGeometry relative="1" as="geometry" />
        </mxCell>
        <mxCell id="W4nhyIR7IbMh0G7S9cnD-26" value="Manage Users" style="ellipse;whiteSpace=wrap;html=1;" parent="1" vertex="1">
          <mxGeometry x="720" y="750" width="140" height="100" as="geometry" />
        </mxCell>
        <mxCell id="W4nhyIR7IbMh0G7S9cnD-27" value="Moderate the Geocaches" style="ellipse;whiteSpace=wrap;html=1;" parent="1" vertex="1">
          <mxGeometry x="720" y="870" width="140" height="100" as="geometry" />
        </mxCell>
        <mxCell id="W4nhyIR7IbMh0G7S9cnD-28" value="" style="endArrow=classic;html=1;rounded=0;entryX=1;entryY=0.5;entryDx=0;entryDy=0;" parent="1" target="W4nhyIR7IbMh0G7S9cnD-27" edge="1">
          <mxGeometry width="50" height="50" relative="1" as="geometry">
            <mxPoint x="990" y="380" as="sourcePoint" />
            <mxPoint x="870" y="810" as="targetPoint" />
          </mxGeometry>
        </mxCell>
        <mxCell id="W4nhyIR7IbMh0G7S9cnD-29" value="" style="endArrow=classic;html=1;rounded=0;entryX=0;entryY=0.5;entryDx=0;entryDy=0;" parent="1" target="W4nhyIR7IbMh0G7S9cnD-11" edge="1">
          <mxGeometry width="50" height="50" relative="1" as="geometry">
            <mxPoint x="560" y="380" as="sourcePoint" />
            <mxPoint x="744" y="165" as="targetPoint" />
          </mxGeometry>
        </mxCell>
        <mxCell id="W4nhyIR7IbMh0G7S9cnD-30" value="" style="endArrow=classic;html=1;rounded=0;entryX=0;entryY=0.5;entryDx=0;entryDy=0;" parent="1" target="W4nhyIR7IbMh0G7S9cnD-14" edge="1">
          <mxGeometry width="50" height="50" relative="1" as="geometry">
            <mxPoint x="560" y="380" as="sourcePoint" />
            <mxPoint x="754" y="175" as="targetPoint" />
          </mxGeometry>
        </mxCell>
        <mxCell id="W4nhyIR7IbMh0G7S9cnD-31" value="" style="endArrow=classic;html=1;rounded=0;entryX=0;entryY=0.5;entryDx=0;entryDy=0;" parent="1" target="W4nhyIR7IbMh0G7S9cnD-16" edge="1">
          <mxGeometry width="50" height="50" relative="1" as="geometry">
            <mxPoint x="560" y="380" as="sourcePoint" />
            <mxPoint x="764" y="185" as="targetPoint" />
          </mxGeometry>
        </mxCell>
        <mxCell id="W4nhyIR7IbMh0G7S9cnD-32" value="" style="endArrow=classic;html=1;rounded=0;entryX=0;entryY=0.5;entryDx=0;entryDy=0;" parent="1" target="W4nhyIR7IbMh0G7S9cnD-18" edge="1">
          <mxGeometry width="50" height="50" relative="1" as="geometry">
            <mxPoint x="560" y="380" as="sourcePoint" />
            <mxPoint x="774" y="195" as="targetPoint" />
          </mxGeometry>
        </mxCell>
        <mxCell id="W4nhyIR7IbMh0G7S9cnD-33" value="" style="endArrow=classic;html=1;rounded=0;entryX=0;entryY=0.5;entryDx=0;entryDy=0;" parent="1" target="W4nhyIR7IbMh0G7S9cnD-20" edge="1">
          <mxGeometry width="50" height="50" relative="1" as="geometry">
            <mxPoint x="560" y="380" as="sourcePoint" />
            <mxPoint x="784" y="205" as="targetPoint" />
          </mxGeometry>
        </mxCell>
        <mxCell id="cJoaispaoDbM7I6KeClg-1" value="Geocaching System" style="text;html=1;align=center;verticalAlign=middle;resizable=0;points=[];autosize=1;strokeColor=none;fillColor=none;" parent="1" vertex="1">
          <mxGeometry x="720" y="80" width="130" height="30" as="geometry" />
        </mxCell>
      </root>
    </mxGraphModel>
  </diagram>
</mxfile>
